<svg width="48" height="47" viewBox="0 0 48 47" fill="none" xmlns="http://www.w3.org/2000/svg">
<path fill-rule="evenodd" clip-rule="evenodd" d="M45.777 32.7273V26.6696L37.4836 23.2728H7.08456L3.59515 19.1574V32.7273C3.59515 33.5306 4.24637 34.1818 5.0497 34.1818H44.3225C45.1258 34.1818 45.777 33.5306 45.777 32.7273Z" fill="#F38141"/>
<path fill-rule="evenodd" clip-rule="evenodd" d="M3.34515 18.9091L6.98152 23.2728H37.527L45.527 26.9091V15.2728L43.3452 11.6364L40.4361 10.9091H8.43606L4.7997 12.3637L3.34515 16V18.9091Z" fill="white"/>
<path d="M8.4361 10.1818H40.4361C43.6493 10.1818 46.2543 12.7867 46.2543 16V32C46.2543 33.6067 44.9519 34.9091 43.3452 34.9091H5.52701C3.92038 34.9091 2.61792 33.6067 2.61792 32V16C2.61792 12.7867 5.22282 10.1818 8.4361 10.1818ZM8.4361 11.6364C6.02614 11.6364 4.07247 13.59 4.07247 16V32C4.07247 32.8034 4.72369 33.4546 5.52701 33.4546H43.3452C44.1485 33.4546 44.7997 32.8034 44.7997 32V16C44.7997 13.59 42.8461 11.6364 40.4361 11.6364H8.4361Z" fill="#333333"/>
<path d="M44.0724 37.0909H4.79972C4.39806 37.0909 4.07245 37.4166 4.07245 37.8182C4.07245 38.2198 4.39806 38.5455 4.79972 38.5455H44.0724C44.474 38.5455 44.7997 38.2198 44.7997 37.8182C44.7997 37.4166 44.474 37.0909 44.0724 37.0909Z" fill="#333333"/>
<path d="M3.0412 19.6278L5.65919 22.7155C6.35012 23.5303 7.36441 24.0001 8.43278 24.0001H36.9117C37.1954 24.0001 37.4762 24.0554 37.7388 24.1629L45.5021 27.3427L46.0534 25.9966L38.29 22.8169C37.8527 22.6377 37.3844 22.5456 36.9117 22.5456H8.43278C7.79176 22.5456 7.18318 22.2637 6.76863 21.7748L3.52011 17.9492L3.0412 19.6278Z" fill="#333333"/>
<path d="M13.527 30.5455C12.5228 30.5455 11.6138 30.9525 10.9557 31.6105C10.2977 32.2685 9.89062 33.1776 9.89062 34.1818C9.89062 35.1861 10.2977 36.0951 10.9557 36.7532C11.6138 37.4112 12.5228 37.8182 13.527 37.8182C14.5311 37.8182 15.4403 37.4112 16.0983 36.7532C16.7564 36.0951 17.1634 35.1861 17.1634 34.1818C17.1634 33.1776 16.7564 32.2685 16.0983 31.6105C15.4403 30.9525 14.5311 30.5455 13.527 30.5455Z" fill="white" stroke="#333333"/>
<path d="M40.4361 27.6364H46.2542V32H40.4361C39.6327 32 38.9815 31.3488 38.9815 30.5454V29.0909C38.9815 28.2876 39.6327 27.6364 40.4361 27.6364Z" fill="#333333"/>
<path d="M44.7997 29.0909H40.4361V30.5454H44.7997V29.0909Z" fill="white"/>
<path d="M33.8906 30.5455C32.8864 30.5455 31.9773 30.9525 31.3193 31.6105C30.6613 32.2685 30.2543 33.1776 30.2543 34.1818C30.2543 35.1861 30.6613 36.0951 31.3193 36.7532C31.9773 37.4112 32.8864 37.8182 33.8906 37.8182C34.8949 37.8182 35.8039 37.4112 36.462 36.7532C37.12 36.0951 37.527 35.1861 37.527 34.1818C37.527 33.1776 37.12 32.2685 36.462 31.6105C35.8039 30.9525 34.8949 30.5455 33.8906 30.5455Z" fill="white" stroke="#333333"/>
<path d="M20.0725 18.1818C20.0725 17.7802 19.7468 17.4545 19.3452 17.4545C18.9436 17.4545 18.6179 17.7802 18.6179 18.1818V22.5454C18.6179 22.947 18.9436 23.2727 19.3452 23.2727C19.7468 23.2727 20.0725 22.947 20.0725 22.5454V18.1818Z" fill="#333333"/>
<path d="M33.1633 11.6364H31.7088V23.2727H33.1633V11.6364Z" fill="#333333"/>
</svg>
