<svg width="48" height="47" viewBox="0 0 48 47" fill="none" xmlns="http://www.w3.org/2000/svg">
<path d="M12.95 3.9202C13.212 3.57959 13.7005 3.54552 14.0078 3.81801L14.103 3.9202L21.3757 13.3747C21.7172 13.8189 21.4477 14.4476 20.9243 14.5352L20.7993 14.5454H18.3396L22.9043 23.6748C23.1088 24.0839 22.8886 24.5542 22.4884 24.6893L22.375 24.7175L22.2538 24.7273H14.2528L14.2538 32.9697H12.7992L12.7983 24.7273H4.79921C4.30016 24.7273 3.96217 24.2425 4.10329 23.7876L4.14873 23.6748L8.71194 14.5454H6.25376C5.73657 14.5454 5.41219 14.0367 5.56173 13.5902L5.60916 13.4802L5.67731 13.3747L12.95 3.9202ZM34.7565 3.93586C35.0179 3.57646 35.5264 3.54052 35.8372 3.82805L35.9328 3.93586L41.751 11.9359C42.0756 12.3822 41.8027 12.9956 41.2862 13.0809L41.1629 13.0909H39.4305L43.2679 20.7657C43.4724 21.1748 43.2522 21.6451 42.8521 21.7802L42.7386 21.8084L42.6174 21.8182H36.071L36.072 27.1516H34.6174L34.6164 21.8182H28.072C27.5729 21.8182 27.2349 21.3334 27.376 20.8784L27.4215 20.7657L31.2574 13.0909H29.5265C29.017 13.0909 28.6919 12.5955 28.8297 12.1512L28.8739 12.0415L28.9383 11.9359L34.7565 3.93586Z" fill="black"/>
<path d="M13.5264 5.55469L19.3228 13.0907H17.1628L17.0416 13.1005C16.5715 13.1777 16.289 13.6968 16.5123 14.1432L21.0755 23.2724H5.97586L10.5405 14.1432L10.586 14.0304C10.7271 13.5755 10.3891 13.0907 9.89004 13.0907H7.72859L13.5264 5.55469ZM35.3446 5.59978L39.7344 11.6361H38.2537L38.1325 11.6459C37.6624 11.7232 37.3799 12.2423 37.6032 12.6887L41.4391 20.3633H29.2486L33.086 12.6887L33.1315 12.5759C33.2726 12.1209 32.9345 11.6361 32.4355 11.6361H30.9533L35.3446 5.59978Z" fill="#71C865"/>
<path fill-rule="evenodd" clip-rule="evenodd" d="M13.5266 5.55469L17.0858 10.1816H9.96735L13.5266 5.55469Z" fill="white"/>
<path d="M35.344 5.60016L38.1455 9.45325H32.5425L35.344 5.60016Z" fill="white"/>
<path fill-rule="evenodd" clip-rule="evenodd" d="M4.07245 43.636V34.9088C6.85742 33.8422 10.8371 32.969 13.9963 32.969C15.5379 32.969 17.0774 33.1444 18.591 33.4695L18.5916 33.3923C23.7444 29.4766 30.1716 27.1512 37.1418 27.1512C39.4594 27.1512 42.6295 27.1494 44.7997 27.636V43.636H4.07245Z" fill="#377E64"/>
<path d="M37.1406 26.424L39.1338 26.4346L39.3689 26.4388C41.3284 26.4783 42.8457 26.6159 44.2304 26.9266C44.6222 27.0144 44.8688 27.4034 44.7808 27.7954C44.6929 28.1872 44.304 28.4338 43.912 28.3458C42.767 28.0889 41.4947 27.9583 39.8878 27.9072L38.647 27.8829L37.1406 27.8786C31.0566 27.8786 25.2494 29.6975 20.3382 33.0314C25.8713 34.4361 30.7932 37.653 34.3485 42.2131C34.5955 42.5299 34.5389 42.9868 34.2221 43.2338C33.9053 43.4807 33.4484 43.4242 33.2014 43.1074C28.6044 37.2111 21.5921 33.6963 13.9951 33.6963C11.242 33.6963 8.20722 34.3821 5.05861 35.5881C4.68351 35.7316 4.26299 35.544 4.11932 35.169C3.97566 34.7939 4.16326 34.3734 4.53836 34.2297C7.83983 32.9652 11.0414 32.2418 13.9951 32.2418C15.4919 32.2418 16.9676 32.3706 18.4092 32.6204L18.1502 32.8132C23.5738 28.6919 30.1866 26.424 37.1406 26.424Z" fill="black"/>
</svg>
