<svg width="48" height="47" viewBox="0 0 48 47" fill="none" xmlns="http://www.w3.org/2000/svg">
<path d="M30.4081 3.15734C30.7416 2.49015 31.5188 2.19137 32.2035 2.43974L32.3595 2.50685L41.0868 6.87049C41.5248 7.0895 41.8195 7.51178 41.8795 7.98986L41.8909 8.17146V38.3735C41.8909 38.8633 41.6449 39.3156 41.2442 39.5831L41.0868 39.6746L32.3595 44.0382C32.1575 44.1392 31.9348 44.1917 31.7091 44.1917C30.963 44.1917 30.3483 43.6302 30.2643 42.9067L30.2545 42.7371L30.2538 40.7268L14.2545 40.7271C13.5086 40.7271 12.8938 40.1655 12.8097 39.4422L12.7999 39.2726L12.7998 31.3527C12.0267 31.4749 11.2113 31.2851 10.5567 30.7763L10.3448 30.5947L3.42328 23.9722L7.55717 20.0167L12.2312 24.4886L12.7993 23.8832L12.7999 7.27251C12.7999 6.52656 13.3615 5.91177 14.0849 5.82775L14.2545 5.81796L30.2538 5.8177L30.2545 3.80782C30.2545 3.63847 30.284 3.47086 30.3415 3.31243L30.4081 3.15734Z" fill="black"/>
<path d="M30.2543 7.27271V39.2727H14.2543V30.6022L14.3837 30.4727L25.0048 19.1811L20.6645 15.4443L14.2543 22.256V7.27271H30.2543Z" fill="#DBE3E8"/>
<path d="M31.7088 3.80756L40.4361 8.17119V38.3734L31.7088 42.737V3.80756Z" fill="#75A8F9"/>
<path d="M34.6179 24.7273C35.4212 24.7273 36.0724 24.0761 36.0724 23.2727C36.0724 22.4694 35.4212 21.8182 34.6179 21.8182C33.8145 21.8182 33.1633 22.4694 33.1633 23.2727C33.1633 24.0761 33.8145 24.7273 34.6179 24.7273Z" fill="white"/>
<path d="M20.8477 17.4545L22.9815 19.2921L13.4017 29.4768C12.8936 30.017 12.0702 30.0826 11.4863 29.6566L11.3366 29.5312L5.52698 23.9723L7.55698 22.0301L12.2863 26.5545L20.8477 17.4545Z" fill="#71C865"/>
</svg>
