<svg width="48" height="47" viewBox="0 0 48 47" fill="none" xmlns="http://www.w3.org/2000/svg">
<path fill-rule="evenodd" clip-rule="evenodd" d="M14.9815 29.8182H9.16335L4.79971 39.2727V42.9091H44.0724V39.2727L39.7088 29.8182H33.1634" fill="#DBE3E8"/>
<path d="M43.3452 39.2727H5.52698V42.1818H43.3452V39.2727Z" fill="white"/>
<path d="M14.9815 29.0909C15.3831 29.0909 15.7088 29.4166 15.7088 29.8182C15.7088 30.1752 15.4515 30.4721 15.1123 30.5336L14.9815 30.5454H9.62736L5.52699 39.4283V42.1818H43.3452V39.4312L39.2434 30.5454H33.1634C32.8063 30.5454 32.5094 30.2881 32.4479 29.9489L32.4361 29.8182C32.4361 29.4611 32.6934 29.1642 33.0326 29.1027L33.1634 29.0909H39.7088C39.952 29.0909 40.1762 29.212 40.31 29.4088L40.3692 29.5134L44.7328 38.968L44.7997 39.2727V42.9091C44.7997 43.2662 44.5424 43.563 44.2032 43.6246L44.0724 43.6363H4.79972C4.44269 43.6363 4.14576 43.379 4.08417 43.0398L4.07245 42.9091V39.2727L4.13939 38.968L8.50304 29.5134C8.60493 29.2926 8.80887 29.1399 9.04371 29.1008L9.16336 29.0909H14.9815Z" fill="black"/>
<path d="M24.4368 2.90912C30.8628 2.90912 36.0724 8.1648 36.0724 14.6477C36.0724 16.8041 35.4966 18.8252 34.4912 20.5603L26.0582 33.4086C25.4704 34.304 24.2681 34.5535 23.3727 33.9657C23.1507 33.8201 22.9612 33.6304 22.8154 33.4086L14.3825 20.5603C13.3771 18.8252 12.7997 16.8041 12.7997 14.6477C12.7997 8.1648 18.0093 2.90912 24.4368 2.90912Z" fill="black"/>
<path d="M24.4368 4.36365C30.0567 4.36365 34.6179 8.96526 34.6179 14.6477C34.6179 16.344 34.2124 17.977 33.4494 19.4372L33.2326 19.8311L24.8422 32.6105L24.7705 32.6963C24.6109 32.8479 24.3626 32.8756 24.1708 32.7497L24.094 32.6873L24.0316 32.6105L15.5985 19.7622L15.3913 19.3839C14.6605 17.9757 14.2542 16.3426 14.2542 14.6477C14.2542 8.96504 18.8157 4.36365 24.4368 4.36365ZM24.4361 10.1818C22.0262 10.1818 20.0724 12.1355 20.0724 14.5455C20.0724 16.9555 22.0262 18.9091 24.4361 18.9091C26.8461 18.9091 28.7997 16.9555 28.7997 14.5455C28.7997 12.1355 26.8461 10.1818 24.4361 10.1818Z" fill="#F85B5B"/>
<path d="M24.4361 11.6364C22.8294 11.6364 21.527 12.9388 21.527 14.5454C21.527 16.1521 22.8294 17.4545 24.4361 17.4545C26.0428 17.4545 27.3452 16.1521 27.3452 14.5454C27.3452 12.9388 26.0428 11.6364 24.4361 11.6364Z" fill="white"/>
</svg>
