<svg width="48" height="47" viewBox="0 0 48 47" fill="none" xmlns="http://www.w3.org/2000/svg">
<path fill-rule="evenodd" clip-rule="evenodd" d="M12.5204 42.9091C11.4714 42.9091 10.6179 42.0753 10.6179 41.0506V26.7217C10.6179 25.0644 11.0923 23.4452 11.9898 22.039L16.4361 16H20.7997L26.2664 21.9322C27.4312 23.3953 28.0725 25.2212 28.0725 27.0748V41.0506C28.0725 42.0753 27.2191 42.9091 26.1701 42.9091H12.5204Z" fill="#A0E1E9" stroke="#333333" stroke-width="1.5"/>
<path fill-rule="evenodd" clip-rule="evenodd" d="M16.4361 16H20.7997V11.6364H16.4361V16Z" stroke="#333333" stroke-width="1.5"/>
<path fill-rule="evenodd" clip-rule="evenodd" d="M27.3452 7.99999H31.7088V3.63635H27.3452V7.99999Z" stroke="#333333" stroke-width="1.5"/>
<path fill-rule="evenodd" clip-rule="evenodd" d="M16.4361 36.3636H28.0725V27.6364H16.4361V36.3636Z" fill="white" stroke="#333333"/>
<path fill-rule="evenodd" clip-rule="evenodd" d="M38.9766 19.403L38.9815 20.3636L38.9769 19.4683C38.961 16.3435 41.5551 13.7978 44.7709 13.7823C44.7805 13.7822 44.7901 13.7822 44.7997 13.7822C41.5817 13.7822 38.9686 11.2557 38.9523 8.12872L38.9479 7.27271V8.1613C38.9479 11.2656 36.358 13.7822 33.1634 13.7822C36.3626 13.7822 38.9607 16.2941 38.9766 19.403ZM33.1572 38.0986L33.1634 39.2727L33.1577 38.1785C33.1376 34.3591 36.3802 31.2478 40.4 31.2289C40.4119 31.2288 40.424 31.2288 40.4361 31.2288C36.4135 31.2288 33.1471 28.1408 33.1268 24.319L33.1213 23.2727V24.3588C33.1213 28.153 29.8841 31.2288 25.8906 31.2288C29.8899 31.2288 33.1373 34.299 33.1572 38.0986Z" stroke="#333333" stroke-width="1.5" stroke-linecap="round" stroke-linejoin="round"/>
<path fill-rule="evenodd" clip-rule="evenodd" d="M11.3452 12.3636V11.2546C11.3452 7.05384 14.9543 3.63635 19.3904 3.63635H27.3452V7.99999L23.3572 12.3636H11.3452Z" fill="#A0E1E9" stroke="#333333" stroke-width="1.5"/>
</svg>
