<svg width="48" height="47" viewBox="0 0 48 47" fill="none" xmlns="http://www.w3.org/2000/svg">
<path fill-rule="evenodd" clip-rule="evenodd" d="M9.16333 39.2727H15.7088V42.1818C15.7088 42.9851 15.0576 43.6363 14.2542 43.6363H10.6179C9.81456 43.6363 9.16333 42.9851 9.16333 42.1818V39.2727ZM33.1633 39.2727H39.7088V42.1818C39.7088 42.9851 39.0576 43.6363 38.2542 43.6363H34.6179C33.8145 43.6363 33.1633 42.9851 33.1633 42.1818V39.2727Z" fill="#787B81"/>
<path fill-rule="evenodd" clip-rule="evenodd" d="M13.527 29.0909H35.3451C37.7552 29.0909 39.7088 31.0445 39.7088 33.4545V40.7272H9.16333V33.4545C9.16333 31.0445 11.117 29.0909 13.527 29.0909Z" fill="#DDE9FD"/>
<path d="M14.8144 2.52196L14.6896 2.5802C14.2624 2.82801 14.1743 3.43421 14.5513 3.79114L21.0153 9.91049L16.5491 11.5364L13.8034 9.51866C12.7768 8.76416 11.441 8.57283 10.2439 9.0088L8.93759 9.48451C8.44902 9.66244 8.27828 10.2667 8.6015 10.674L13.1758 16.4382C14.1951 17.7226 15.9219 18.2107 17.4627 17.6499L38.4428 10.0135C40.0146 9.44157 40.825 7.70363 40.2524 6.13232L40.1629 5.91309C39.5155 4.48689 37.8685 3.77773 36.3717 4.32235L29.5881 6.7913L20.1791 1.88605C19.2311 1.39183 18.1191 1.31867 17.1146 1.68443L14.8144 2.52196Z" fill="#75A8F9"/>
<path d="M24.4361 19.6363C27.6655 19.6363 30.4625 19.7851 32.8295 20.0836C34.1591 20.2513 35.2809 21.1348 35.7623 22.3703L35.8499 22.6221L37.3917 27.6363H39.7088C40.5121 27.6363 41.1633 28.2875 41.1633 29.0909C41.1633 29.8942 40.5121 30.5454 39.7088 30.5454L38.5978 30.5456C39.2887 31.3175 39.7088 32.337 39.7088 33.4545L39.7073 40H39.7088V42.1818C39.7088 42.9277 39.1473 43.5425 38.4239 43.6266L38.2543 43.6363H34.6179C33.872 43.6363 33.2572 43.0749 33.1731 42.3514L33.1633 42.1818V40.7273H15.7088V42.1818C15.7088 42.9277 15.1473 43.5425 14.4239 43.6266L14.2543 43.6363H10.6179C9.87196 43.6363 9.25716 43.0749 9.17314 42.3514L9.16335 42.1818V40.7273V33.4545C9.16335 32.337 9.58345 31.3175 10.2743 30.5456L9.16335 30.5454C8.36003 30.5454 7.7088 29.8942 7.7088 29.0909C7.7088 28.2875 8.36003 27.6363 9.16335 27.6363H11.479L13.0222 22.6221C13.4426 21.2558 14.6244 20.2625 16.0428 20.0836C18.4096 19.7851 21.2067 19.6363 24.4361 19.6363ZM14.2543 40.7273H10.6179V42.1818H14.2543V40.7273ZM38.2543 40.7273H34.6179V42.1818H38.2543V40.7273ZM35.3452 30.5454H13.527C11.9934 30.5454 10.7369 31.7322 10.6259 33.2374L10.6179 33.4545L10.6164 39.2727H38.2528L38.2543 33.4545C38.2543 31.9209 37.0675 30.6644 35.5623 30.5534L35.3452 30.5454ZM15.7088 32.3636C17.1146 32.3636 18.2543 33.5033 18.2543 34.9091C18.2543 36.3149 17.1146 37.4545 15.7088 37.4545C14.303 37.4545 13.1633 36.3149 13.1633 34.9091C13.1633 33.5033 14.303 32.3636 15.7088 32.3636ZM33.1633 32.3636C34.5692 32.3636 35.7088 33.5033 35.7088 34.9091C35.7088 36.3149 34.5692 37.4545 33.1633 37.4545C31.7575 37.4545 30.6179 36.3149 30.6179 34.9091C30.6179 33.5033 31.7575 32.3636 33.1633 32.3636ZM24.4361 21.0909C21.2637 21.0909 18.526 21.2365 16.2247 21.5268C15.4447 21.6251 14.7839 22.1341 14.4848 22.8497L14.4125 23.0497L12.5162 29.2086C12.8406 29.1316 13.179 29.0909 13.527 29.0909H35.3452C35.6931 29.0909 36.0316 29.1316 36.3559 29.2086L34.4598 23.0499C34.2074 22.2301 33.4983 21.6342 32.6474 21.5268C30.3462 21.2365 27.6084 21.0909 24.4361 21.0909ZM19.9167 1.76171L20.1791 1.88605L29.5881 6.7913L36.3716 4.32235C37.7937 3.80496 39.3511 4.41911 40.0583 5.70459L40.1629 5.91309L40.2524 6.13232C40.799 7.6322 40.0854 9.28393 38.6522 9.92836L38.4428 10.0135L17.4627 17.6499C16.0076 18.1796 14.3863 17.7737 13.352 16.6449L13.1757 16.4382L8.60148 10.674C8.30519 10.3007 8.42397 9.76179 8.82215 9.53751L8.93757 9.48451L10.2438 9.0088C11.3555 8.60397 12.5867 8.74003 13.5789 9.36563L13.8034 9.51866L16.5491 11.5364L21.0153 9.91049L14.5513 3.79114C14.2086 3.46666 14.2502 2.93617 14.5817 2.65622L14.6896 2.5802L14.8144 2.52196L17.1146 1.68443C18.0278 1.35193 19.0298 1.38216 19.9167 1.76171ZM17.848 2.97911L17.6122 3.0512L16.3633 3.50398L23.7244 10.4722L16.3151 13.1695L12.942 10.6907C12.3709 10.271 11.6449 10.1332 10.9659 10.3063L10.7416 10.3755L10.3386 10.5222L14.3151 15.5341C14.9002 16.2714 15.8624 16.5841 16.7596 16.3475L16.9652 16.283L37.9455 8.64657C38.7076 8.36922 39.1252 7.5642 38.9519 6.83641L38.9056 6.68186L38.8384 6.51427C38.5251 5.82398 37.7625 5.46163 37.0359 5.63867L36.8691 5.68919L29.4836 8.37719L19.5066 3.17582C18.9939 2.90851 18.4035 2.84046 17.848 2.97911Z" fill="#333333"/>
<path d="M15.7088 36.3636C16.5121 36.3636 17.1633 35.7124 17.1633 34.9091C17.1633 34.1057 16.5121 33.4545 15.7088 33.4545C14.9054 33.4545 14.2542 34.1057 14.2542 34.9091C14.2542 35.7124 14.9054 36.3636 15.7088 36.3636Z" fill="white"/>
<path d="M33.1633 36.3636C33.9667 36.3636 34.6179 35.7124 34.6179 34.9091C34.6179 34.1057 33.9667 33.4545 33.1633 33.4545C32.36 33.4545 31.7088 34.1057 31.7088 34.9091C31.7088 35.7124 32.36 36.3636 33.1633 36.3636Z" fill="white"/>
</svg>
